<?xml version="1.0" ?><svg id="Layer_1" style="enable-background:new 0 0 124 124;" version="1.1" viewBox="0 0 124 124" xml:space="preserve" xmlns="http://www.w3.org/2000/svg" xmlns:xlink="http://www.w3.org/1999/xlink"><style type="text/css">
	.st0{fill-rule:evenodd;clip-rule:evenodd;fill:#333033;}
</style><g id="XMLID_52_"><g id="XMLID_53_"><path class="st0" d="M50.1,62.4v44.4c0,0.6,0.5,1.2,1.2,1.2h16.5c0.6,0,1.2-0.5,1.2-1.2V61.6h11.9    c0.6,0,1.1-0.5,1.2-1.1L83.1,47c0.1-0.7-0.5-1.3-1.2-1.3H68.9v-9.6c0-2.3,1.8-4.1,4.1-4.1h9.2c0.6,0,1.2-0.5,1.2-1.2V17.3    c0-0.6-0.5-1.2-1.2-1.2H66.6c-9.1,0-16.5,7.4-16.5,16.5v13.1h-8.2c-0.6,0-1.2,0.5-1.2,1.2v13.6c0,0.6,0.5,1.2,1.2,1.2h8.2V62.4z" id="XMLID_54_"/></g></g></svg>