<?xml version="1.0" ?><svg id="Layer_1" style="enable-background:new 0 0 124 124;" version="1.1" viewBox="0 0 124 124" xml:space="preserve" xmlns="http://www.w3.org/2000/svg" xmlns:xlink="http://www.w3.org/1999/xlink"><style type="text/css">
	.st0{fill-rule:evenodd;clip-rule:evenodd;fill:#333033;}
</style><g id="XMLID_77_"><g id="XMLID_78_"><g id="XMLID_81_"><path class="st0" d="M64,15.8c-25.5,0-46.2,20.7-46.2,46.2c0,9,2.5,17.6,7.4,25.1l-7,15.5     c-0.6,1.4-0.4,3.1,0.6,4.3c0.8,0.9,1.9,1.4,3.1,1.4c0.4,0,0.7,0,1.1-0.1l19.4-5.3c6.7,3.6,14.2,5.5,21.8,5.5     c25.5,0,46.2-20.7,46.2-46.2C110.2,36.5,89.5,15.8,64,15.8z M64,100.2c-6.8,0-13.4-1.8-19.2-5.2c-0.6-0.4-1.3-0.6-2-0.6     c-0.4,0-0.7,0-1.1,0.1L29,98l4.4-9.7c0.6-1.3,0.4-2.9-0.4-4c-4.7-6.5-7.2-14.2-7.2-22.3C25.8,41,43,23.8,64,23.8     c21,0,38.2,17.1,38.2,38.2C102.2,83,85.1,100.2,64,100.2z" id="XMLID_82_"/></g><g id="XMLID_79_"><path class="st0" d="M81.8,68.9c-1.9-1.2-4.5-2.5-6.7-1.5c-1.7,0.7-2.9,3.5-4,4.9c-0.6,0.7-1.3,0.8-2.2,0.5     c-6.6-2.6-11.6-7-15.2-13c-0.6-0.9-0.5-1.7,0.2-2.6c1.1-1.3,2.5-2.8,2.8-4.5c0.3-1.7-0.5-3.8-1.2-5.3c-0.9-2-1.9-4.8-3.9-5.9     c-1.8-1-4.2-0.5-5.8,0.9c-2.8,2.3-4.2,5.9-4.1,9.4c0,1,0.1,2,0.4,3c0.6,2.3,1.6,4.5,2.9,6.6c0.9,1.6,1.9,3.1,3,4.5     c3.5,4.8,7.9,8.9,12.9,12c2.5,1.5,5.3,2.9,8.1,3.8c3.2,1,6,2.1,9.4,1.5c3.6-0.7,7.1-2.9,8.5-6.3c0.4-1,0.6-2.2,0.4-3.2     C86.6,71.3,83.6,70,81.8,68.9z" id="XMLID_80_"/></g></g></g></svg>