<?xml version="1.0" encoding="UTF-8"?>
<svg xmlns="http://www.w3.org/2000/svg" xmlns:xlink="http://www.w3.org/1999/xlink" width="128px" height="128px" viewBox="0 0 128 128" version="1.1">
<g id="surface58076">
<path style=" stroke:none;fill-rule:evenodd;fill:rgb(15.686275%,20.784314%,57.647059%);fill-opacity:1;" d="M 61.074219 8.761719 C 62.886719 7.746094 65.113281 7.746094 66.921875 8.761719 C 75.871094 13.785156 102.792969 28.898438 111.742188 33.921875 C 113.550781 34.933594 114.667969 36.8125 114.667969 38.84375 C 114.667969 48.886719 114.667969 79.113281 114.667969 89.15625 C 114.667969 91.1875 113.550781 93.0625 111.742188 94.078125 C 102.792969 99.101562 75.871094 114.214844 66.921875 119.238281 C 65.113281 120.253906 62.882812 120.253906 61.074219 119.238281 C 52.128906 114.214844 25.207031 99.101562 16.257812 94.078125 C 14.449219 93.0625 13.332031 91.1875 13.332031 89.15625 C 13.332031 79.113281 13.332031 48.886719 13.332031 38.84375 C 13.332031 36.8125 14.449219 34.9375 16.257812 33.921875 C 25.203125 28.898438 52.128906 13.785156 61.074219 8.761719 Z M 61.074219 8.761719 "/>
<path style=" stroke:none;fill-rule:evenodd;fill:rgb(36.078431%,41.960784%,75.294118%);fill-opacity:1;" d="M 14.144531 91.742188 C 13.433594 90.792969 13.332031 89.894531 13.332031 88.679688 C 13.332031 78.695312 13.332031 48.644531 13.332031 38.65625 C 13.332031 36.632812 14.445312 34.769531 16.25 33.761719 C 25.164062 28.769531 51.996094 13.742188 60.910156 8.746094 C 62.71875 7.734375 65.164062 7.757812 66.96875 8.769531 C 75.882812 13.761719 102.625 28.660156 111.539062 33.652344 C 112.257812 34.054688 112.808594 34.542969 113.296875 35.1875 Z M 14.144531 91.742188 "/>
<path style=" stroke:none;fill-rule:evenodd;fill:rgb(100%,100%,100%);fill-opacity:1;" d="M 64 26.667969 C 84.605469 26.667969 101.332031 43.394531 101.332031 64 C 101.332031 84.605469 84.605469 101.332031 64 101.332031 C 43.394531 101.332031 26.667969 84.605469 26.667969 64 C 26.667969 43.394531 43.394531 26.667969 64 26.667969 Z M 64 45.332031 C 74.300781 45.332031 82.667969 53.695312 82.667969 64 C 82.667969 74.300781 74.300781 82.667969 64 82.667969 C 53.699219 82.667969 45.332031 74.300781 45.332031 64 C 45.332031 53.695312 53.695312 45.332031 64 45.332031 Z M 64 45.332031 "/>
<path style=" stroke:none;fill-rule:evenodd;fill:rgb(22.352941%,28.627451%,67.058824%);fill-opacity:1;" d="M 113.292969 35.214844 C 114.667969 36.5 114.644531 38.441406 114.644531 39.96875 C 114.644531 50.089844 114.558594 78.875 114.667969 88.996094 C 114.675781 90.050781 114.328125 91.164062 113.804688 92 L 62.914062 64 Z M 113.292969 35.214844 "/>
</g>
</svg>
